<?xml version="1.0" encoding="UTF-8" standalone="no"?>
<!DOCTYPE svg PUBLIC "-//W3C//DTD SVG 1.1//EN"
 "http://www.w3.org/Graphics/SVG/1.1/DTD/svg11.dtd">
<!-- Generated by graphviz version 2.47.0 (20210316.0004)
 -->
<!-- Title: dependencies Pages: 1 -->
<svg width="4214pt" height="450pt"
 viewBox="0.00 0.00 4214.00 450.00" xmlns="http://www.w3.org/2000/svg" xmlns:xlink="http://www.w3.org/1999/xlink">
<g id="graph0" class="graph" transform="scale(1 1) rotate(0) translate(4 446)">
<title>dependencies</title>
<polygon fill="white" stroke="transparent" points="-4,4 -4,-446 4210,-446 4210,4 -4,4"/>
<text text-anchor="start" x="2082.01" y="-42.4" font-family="Times-12" font-weight="bold" font-size="14.00">Legend</text>
<polygon fill="#ffffb3" stroke="transparent" points="1869,-10 1869,-30 1889,-30 1889,-10 1869,-10"/>
<text text-anchor="start" x="1892.63" y="-15.4" font-family="Times-12" font-size="14.00"> &#160;Declarations</text>
<polygon fill="#8dd3c7" stroke="transparent" points="1982,-10 1982,-30 2002,-30 2002,-10 1982,-10"/>
<text text-anchor="start" x="2005.73" y="-15.4" font-family="Times-12" font-size="14.00"> &#160;Module</text>
<polygon fill="#80b1d3" stroke="transparent" points="2068,-10 2068,-30 2088,-30 2088,-10 2068,-10"/>
<text text-anchor="start" x="2091.78" y="-15.4" font-family="Times-12" font-size="14.00"> &#160;Bootstrap</text>
<polygon fill="#fdb462" stroke="transparent" points="2165,-10 2165,-30 2185,-30 2185,-10 2165,-10"/>
<text text-anchor="start" x="2188.67" y="-15.4" font-family="Times-12" font-size="14.00"> &#160;Providers</text>
<polygon fill="#fb8072" stroke="transparent" points="2261,-10 2261,-30 2281,-30 2281,-10 2261,-10"/>
<text text-anchor="start" x="2284.73" y="-15.4" font-family="Times-12" font-size="14.00"> &#160;Exports</text>
<g id="clust1" class="cluster">
<title>cluster_ApiKeyModule</title>
<polygon fill="none" stroke="black" stroke-dasharray="1,5" points="4024,-70 4024,-358 4198,-358 4198,-70 4024,-70"/>
</g>
<g id="clust3" class="cluster">
<title>cluster_ApiKeyModule_imports</title>
<polygon fill="none" stroke="black" points="4032,-146 4032,-198 4160,-198 4160,-146 4032,-146"/>
</g>
<g id="clust4" class="cluster">
<title>cluster_ApiKeyModule_exports</title>
<polygon fill="none" stroke="black" points="4046,-298 4046,-350 4168,-350 4168,-298 4046,-298"/>
</g>
<g id="clust6" class="cluster">
<title>cluster_ApiKeyModule_providers</title>
<polygon fill="none" stroke="black" points="4032,-78 4032,-130 4190,-130 4190,-78 4032,-78"/>
</g>
<g id="clust7" class="cluster">
<title>cluster_AppModule</title>
<polygon fill="none" stroke="black" stroke-dasharray="1,5" points="606,-214 606,-350 1122,-350 1122,-214 606,-214"/>
</g>
<g id="clust9" class="cluster">
<title>cluster_AppModule_imports</title>
<polygon fill="none" stroke="black" points="614,-222 614,-274 976,-274 976,-222 614,-222"/>
</g>
<g id="clust12" class="cluster">
<title>cluster_AppModule_providers</title>
<polygon fill="none" stroke="black" points="984,-222 984,-274 1114,-274 1114,-222 984,-222"/>
</g>
<g id="clust13" class="cluster">
<title>cluster_AuditModule</title>
<polygon fill="none" stroke="black" stroke-dasharray="1,5" points="1130,-70 1130,-282 1286,-282 1286,-70 1130,-70"/>
</g>
<g id="clust16" class="cluster">
<title>cluster_AuditModule_exports</title>
<polygon fill="none" stroke="black" points="1164,-222 1164,-274 1274,-274 1274,-222 1164,-222"/>
</g>
<g id="clust18" class="cluster">
<title>cluster_AuditModule_providers</title>
<polygon fill="none" stroke="black" points="1138,-78 1138,-130 1278,-130 1278,-78 1138,-78"/>
</g>
<g id="clust19" class="cluster">
<title>cluster_AuthModule</title>
<polygon fill="none" stroke="black" stroke-dasharray="1,5" points="296,-70 296,-282 598,-282 598,-70 296,-70"/>
</g>
<g id="clust22" class="cluster">
<title>cluster_AuthModule_exports</title>
<polygon fill="none" stroke="black" points="484,-222 484,-274 590,-274 590,-222 484,-222"/>
</g>
<g id="clust24" class="cluster">
<title>cluster_AuthModule_providers</title>
<polygon fill="none" stroke="black" points="304,-78 304,-130 590,-130 590,-78 304,-78"/>
</g>
<g id="clust25" class="cluster">
<title>cluster_CommonModule</title>
<polygon fill="none" stroke="black" stroke-dasharray="1,5" points="1360,-214 1360,-282 4016,-282 4016,-214 1360,-214"/>
</g>
<g id="clust28" class="cluster">
<title>cluster_CommonModule_exports</title>
<polygon fill="none" stroke="black" points="2848,-222 2848,-274 4008,-274 4008,-222 2848,-222"/>
</g>
<g id="clust30" class="cluster">
<title>cluster_CommonModule_providers</title>
<polygon fill="none" stroke="black" points="1368,-222 1368,-274 2840,-274 2840,-222 1368,-222"/>
</g>
<g id="clust31" class="cluster">
<title>cluster_DomainModule</title>
<polygon fill="none" stroke="black" stroke-dasharray="1,5" points="8,-290 8,-358 598,-358 598,-290 8,-290"/>
</g>
<g id="clust33" class="cluster">
<title>cluster_DomainModule_imports</title>
<polygon fill="none" stroke="black" points="482,-298 482,-350 590,-350 590,-298 482,-298"/>
</g>
<g id="clust34" class="cluster">
<title>cluster_DomainModule_exports</title>
<polygon fill="none" stroke="black" points="16,-298 16,-350 474,-350 474,-298 16,-298"/>
</g>
<g id="clust43" class="cluster">
<title>cluster_QueuesModule</title>
<polygon fill="none" stroke="black" stroke-dasharray="1,5" points="692,-138 692,-206 976,-206 976,-138 692,-138"/>
</g>
<g id="clust46" class="cluster">
<title>cluster_QueuesModule_exports</title>
<polygon fill="none" stroke="black" points="854,-146 854,-198 968,-198 968,-146 854,-146"/>
</g>
<g id="clust48" class="cluster">
<title>cluster_QueuesModule_providers</title>
<polygon fill="none" stroke="black" points="700,-146 700,-198 846,-198 846,-146 700,-146"/>
</g>
<g id="clust49" class="cluster">
<title>cluster_UsersModule</title>
<polygon fill="none" stroke="black" stroke-dasharray="1,5" points="391,-366 391,-434 665,-434 665,-366 391,-366"/>
</g>
<g id="clust52" class="cluster">
<title>cluster_UsersModule_exports</title>
<polygon fill="none" stroke="black" points="547,-374 547,-426 657,-426 657,-374 547,-374"/>
</g>
<g id="clust54" class="cluster">
<title>cluster_UsersModule_providers</title>
<polygon fill="none" stroke="black" points="399,-374 399,-426 539,-426 539,-374 399,-374"/>
</g>
<!-- CommonModule -->
<g id="node1" class="node">
<title>CommonModule</title>
<polygon fill="#8dd3c7" stroke="black" points="4151.67,-190 4148.67,-194 4127.67,-194 4124.67,-190 4040.33,-190 4040.33,-154 4151.67,-154 4151.67,-190"/>
<text text-anchor="middle" x="4096" y="-167.8" font-family="Times,serif" font-size="14.00">CommonModule</text>
</g>
<!-- ApiKeyModule -->
<g id="node2" class="node">
<title>ApiKeyModule</title>
<polygon fill="#8dd3c7" stroke="black" points="4172.87,-266 4169.87,-270 4148.87,-270 4145.87,-266 4069.13,-266 4069.13,-230 4172.87,-230 4172.87,-266"/>
<text text-anchor="middle" x="4121" y="-243.8" font-family="Times,serif" font-size="14.00">ApiKeyModule</text>
</g>
<!-- CommonModule&#45;&gt;ApiKeyModule -->
<g id="edge1" class="edge">
<title>CommonModule&#45;&gt;ApiKeyModule</title>
<path fill="none" stroke="black" d="M4124.24,-190.01C4124.24,-190.01 4124.24,-219.85 4124.24,-219.85"/>
<polygon fill="black" stroke="black" points="4120.74,-219.85 4124.24,-229.85 4127.74,-219.85 4120.74,-219.85"/>
</g>
<!-- ApiKeyService  -->
<g id="node3" class="node">
<title>ApiKeyService </title>
<polygon fill="#fb8072" stroke="black" points="4159.8,-342 4054.2,-342 4054.2,-306 4159.8,-306 4159.8,-342"/>
<text text-anchor="middle" x="4107" y="-319.8" font-family="Times,serif" font-size="14.00">ApiKeyService </text>
</g>
<!-- CommonModule&#45;&gt;ApiKeyService  -->
<g id="edge17" class="edge">
<title>CommonModule&#45;&gt;ApiKeyService </title>
<path fill="none" stroke="black" stroke-dasharray="5,2" d="M4061.58,-190.03C4061.58,-190.03 4061.58,-295.99 4061.58,-295.99"/>
<polygon fill="black" stroke="black" points="4058.08,-295.99 4061.58,-305.99 4065.08,-295.99 4058.08,-295.99"/>
</g>
<!-- LoadersModule -->
<g id="node6" class="node">
<title>LoadersModule</title>
<polygon fill="#8dd3c7" stroke="black" points="968.14,-266 965.14,-270 944.14,-270 941.14,-266 863.86,-266 863.86,-230 968.14,-230 968.14,-266"/>
<text text-anchor="middle" x="916" y="-243.8" font-family="Times,serif" font-size="14.00">LoadersModule</text>
</g>
<!-- CommonModule&#45;&gt;LoadersModule -->
<g id="edge46" class="edge">
<title>CommonModule&#45;&gt;LoadersModule</title>
<path fill="none" stroke="black" d="M4044.81,-190.04C4044.81,-202.56 4044.81,-217 4044.81,-217 4044.81,-217 911.84,-217 911.84,-217 911.84,-217 911.84,-219.97 911.84,-219.97"/>
<polygon fill="black" stroke="black" points="908.34,-219.97 911.84,-229.97 915.34,-219.97 908.34,-219.97"/>
</g>
<!-- AppModule -->
<g id="node8" class="node">
<title>AppModule</title>
<polygon fill="#8dd3c7" stroke="black" points="957.66,-342 954.66,-346 933.66,-346 930.66,-342 874.34,-342 874.34,-306 957.66,-306 957.66,-342"/>
<text text-anchor="middle" x="916" y="-319.8" font-family="Times,serif" font-size="14.00">AppModule</text>
</g>
<!-- CommonModule&#45;&gt;AppModule -->
<g id="edge4" class="edge">
<title>CommonModule&#45;&gt;AppModule</title>
<path fill="none" stroke="black" d="M4051.78,-190.12C4051.78,-231.63 4051.78,-330 4051.78,-330 4051.78,-330 967.67,-330 967.67,-330"/>
<polygon fill="black" stroke="black" points="967.67,-326.5 957.67,-330 967.67,-333.5 967.67,-326.5"/>
</g>
<!-- AuditModule -->
<g id="node10" class="node">
<title>AuditModule</title>
<polygon fill="#8dd3c7" stroke="black" points="1257.94,-190 1254.94,-194 1233.94,-194 1230.94,-190 1166.06,-190 1166.06,-154 1257.94,-154 1257.94,-190"/>
<text text-anchor="middle" x="1212" y="-167.8" font-family="Times,serif" font-size="14.00">AuditModule</text>
</g>
<!-- CommonModule&#45;&gt;AuditModule -->
<g id="edge9" class="edge">
<title>CommonModule&#45;&gt;AuditModule</title>
<path fill="none" stroke="black" d="M4040.33,-158C4040.33,-158 1267.74,-158 1267.74,-158"/>
<polygon fill="black" stroke="black" points="1267.74,-154.5 1257.74,-158 1267.74,-161.5 1267.74,-154.5"/>
</g>
<!-- AuditService  -->
<g id="node11" class="node">
<title>AuditService </title>
<polygon fill="#fb8072" stroke="black" points="1265.87,-266 1172.13,-266 1172.13,-230 1265.87,-230 1265.87,-266"/>
<text text-anchor="middle" x="1219" y="-243.8" font-family="Times,serif" font-size="14.00">AuditService </text>
</g>
<!-- CommonModule&#45;&gt;AuditService  -->
<g id="edge19" class="edge">
<title>CommonModule&#45;&gt;AuditService </title>
<path fill="none" stroke="black" stroke-dasharray="5,2" d="M4040.05,-160C3642.67,-160 1263.03,-160 1263.03,-160 1263.03,-160 1263.03,-219.77 1263.03,-219.77"/>
<polygon fill="black" stroke="black" points="1259.53,-219.77 1263.03,-229.77 1266.53,-219.77 1259.53,-219.77"/>
</g>
<!-- AuthModule -->
<g id="node13" class="node">
<title>AuthModule</title>
<polygon fill="#8dd3c7" stroke="black" points="580.55,-190 577.55,-194 556.55,-194 553.55,-190 493.45,-190 493.45,-154 580.55,-154 580.55,-190"/>
<text text-anchor="middle" x="537" y="-167.8" font-family="Times,serif" font-size="14.00">AuthModule</text>
</g>
<!-- CommonModule&#45;&gt;AuthModule -->
<g id="edge12" class="edge">
<title>CommonModule&#45;&gt;AuthModule</title>
<path fill="none" stroke="black" d="M4042.49,-190.17C4042.49,-194.05 4042.49,-197 4042.49,-197 4042.49,-197 551.59,-197 551.59,-197 551.59,-197 551.59,-196.32 551.59,-196.32"/>
<polygon fill="black" stroke="black" points="555.09,-200.17 551.59,-190.17 548.09,-200.17 555.09,-200.17"/>
</g>
<!-- ApiKeyGuard  -->
<g id="node17" class="node">
<title>ApiKeyGuard </title>
<polygon fill="#fb8072" stroke="black" points="3771.3,-266 3672.7,-266 3672.7,-230 3771.3,-230 3771.3,-266"/>
<text text-anchor="middle" x="3722" y="-243.8" font-family="Times,serif" font-size="14.00">ApiKeyGuard </text>
</g>
<!-- CommonModule&#45;&gt;ApiKeyGuard  -->
<g id="edge16" class="edge">
<title>CommonModule&#45;&gt;ApiKeyGuard </title>
<path fill="none" stroke="black" stroke-dasharray="5,2" d="M4040.01,-187C3935.67,-187 3722,-187 3722,-187 3722,-187 3722,-219.7 3722,-219.7"/>
<polygon fill="black" stroke="black" points="3718.5,-219.7 3722,-229.7 3725.5,-219.7 3718.5,-219.7"/>
</g>
<!-- AppConfiguration  -->
<g id="node18" class="node">
<title>AppConfiguration </title>
<polygon fill="#fb8072" stroke="black" points="3655.15,-266 3532.85,-266 3532.85,-230 3655.15,-230 3655.15,-266"/>
<text text-anchor="middle" x="3594" y="-243.8" font-family="Times,serif" font-size="14.00">AppConfiguration </text>
</g>
<!-- CommonModule&#45;&gt;AppConfiguration  -->
<g id="edge18" class="edge">
<title>CommonModule&#45;&gt;AppConfiguration </title>
<path fill="none" stroke="black" stroke-dasharray="5,2" d="M4039.88,-185C3908.88,-185 3594,-185 3594,-185 3594,-185 3594,-219.78 3594,-219.78"/>
<polygon fill="black" stroke="black" points="3590.5,-219.78 3594,-229.78 3597.5,-219.78 3590.5,-219.78"/>
</g>
<!-- AuthMiddleware  -->
<g id="node19" class="node">
<title>AuthMiddleware </title>
<polygon fill="#fb8072" stroke="black" points="3514.63,-266 3399.37,-266 3399.37,-230 3514.63,-230 3514.63,-266"/>
<text text-anchor="middle" x="3457" y="-243.8" font-family="Times,serif" font-size="14.00">AuthMiddleware </text>
</g>
<!-- CommonModule&#45;&gt;AuthMiddleware  -->
<g id="edge20" class="edge">
<title>CommonModule&#45;&gt;AuthMiddleware </title>
<path fill="none" stroke="black" stroke-dasharray="5,2" d="M4040.13,-183C3884.44,-183 3457,-183 3457,-183 3457,-183 3457,-219.89 3457,-219.89"/>
<polygon fill="black" stroke="black" points="3453.5,-219.89 3457,-229.89 3460.5,-219.89 3453.5,-219.89"/>
</g>
<!-- AuthenticationUtilityService  -->
<g id="node20" class="node">
<title>AuthenticationUtilityService </title>
<polygon fill="#fb8072" stroke="black" points="3381.74,-266 3200.26,-266 3200.26,-230 3381.74,-230 3381.74,-266"/>
<text text-anchor="middle" x="3291" y="-243.8" font-family="Times,serif" font-size="14.00">AuthenticationUtilityService </text>
</g>
<!-- CommonModule&#45;&gt;AuthenticationUtilityService  -->
<g id="edge21" class="edge">
<title>CommonModule&#45;&gt;AuthenticationUtilityService </title>
<path fill="none" stroke="black" stroke-dasharray="5,2" d="M4040.03,-181C3857.48,-181 3291,-181 3291,-181 3291,-181 3291,-219.69 3291,-219.69"/>
<polygon fill="black" stroke="black" points="3287.5,-219.69 3291,-229.69 3294.5,-219.69 3287.5,-219.69"/>
</g>
<!-- CacheService  -->
<g id="node21" class="node">
<title>CacheService </title>
<polygon fill="#fb8072" stroke="black" points="3182.46,-266 3085.54,-266 3085.54,-230 3182.46,-230 3182.46,-266"/>
<text text-anchor="middle" x="3134" y="-243.8" font-family="Times,serif" font-size="14.00">CacheService </text>
</g>
<!-- CommonModule&#45;&gt;CacheService  -->
<g id="edge22" class="edge">
<title>CommonModule&#45;&gt;CacheService </title>
<path fill="none" stroke="black" stroke-dasharray="5,2" d="M4040.12,-180C3834.81,-180 3134,-180 3134,-180 3134,-180 3134,-219.78 3134,-219.78"/>
<polygon fill="black" stroke="black" points="3130.5,-219.78 3134,-229.78 3137.5,-219.78 3130.5,-219.78"/>
</g>
<!-- EmailService  -->
<g id="node22" class="node">
<title>EmailService </title>
<polygon fill="#fb8072" stroke="black" points="3067.42,-266 2972.58,-266 2972.58,-230 3067.42,-230 3067.42,-266"/>
<text text-anchor="middle" x="3020" y="-243.8" font-family="Times,serif" font-size="14.00">EmailService </text>
</g>
<!-- CommonModule&#45;&gt;EmailService  -->
<g id="edge23" class="edge">
<title>CommonModule&#45;&gt;EmailService </title>
<path fill="none" stroke="black" stroke-dasharray="5,2" d="M4040.04,-178C3819.17,-178 3020,-178 3020,-178 3020,-178 3020,-219.97 3020,-219.97"/>
<polygon fill="black" stroke="black" points="3016.5,-219.97 3020,-229.97 3023.5,-219.97 3016.5,-219.97"/>
</g>
<!-- HealthService  -->
<g id="node23" class="node">
<title>HealthService </title>
<polygon fill="#fb8072" stroke="black" points="2954.29,-266 2855.71,-266 2855.71,-230 2954.29,-230 2954.29,-266"/>
<text text-anchor="middle" x="2905" y="-243.8" font-family="Times,serif" font-size="14.00">HealthService </text>
</g>
<!-- CommonModule&#45;&gt;HealthService  -->
<g id="edge24" class="edge">
<title>CommonModule&#45;&gt;HealthService </title>
<path fill="none" stroke="black" stroke-dasharray="5,2" d="M4040.15,-176C3804.69,-176 2905,-176 2905,-176 2905,-176 2905,-219.83 2905,-219.83"/>
<polygon fill="black" stroke="black" points="2901.5,-219.83 2905,-229.83 2908.5,-219.83 2901.5,-219.83"/>
</g>
<!-- PrismaClient  -->
<g id="node24" class="node">
<title>PrismaClient </title>
<polygon fill="#fb8072" stroke="black" points="4000.11,-266 3907.89,-266 3907.89,-230 4000.11,-230 4000.11,-266"/>
<text text-anchor="middle" x="3954" y="-243.8" font-family="Times,serif" font-size="14.00">PrismaClient </text>
</g>
<!-- CommonModule&#45;&gt;PrismaClient  -->
<g id="edge25" class="edge">
<title>CommonModule&#45;&gt;PrismaClient </title>
<path fill="none" stroke="black" stroke-dasharray="5,2" d="M4047.13,-190.01C4047.13,-212.49 4047.13,-248 4047.13,-248 4047.13,-248 4010.29,-248 4010.29,-248"/>
<polygon fill="black" stroke="black" points="4010.29,-244.5 4000.29,-248 4010.29,-251.5 4010.29,-244.5"/>
</g>
<!-- PrismaService  -->
<g id="node25" class="node">
<title>PrismaService </title>
<polygon fill="#fb8072" stroke="black" points="3890.36,-266 3789.64,-266 3789.64,-230 3890.36,-230 3890.36,-266"/>
<text text-anchor="middle" x="3840" y="-243.8" font-family="Times,serif" font-size="14.00">PrismaService </text>
</g>
<!-- CommonModule&#45;&gt;PrismaService  -->
<g id="edge26" class="edge">
<title>CommonModule&#45;&gt;PrismaService </title>
<path fill="none" stroke="black" stroke-dasharray="5,2" d="M4040.14,-189C3964.81,-189 3840,-189 3840,-189 3840,-189 3840,-219.98 3840,-219.98"/>
<polygon fill="black" stroke="black" points="3836.5,-219.98 3840,-229.98 3843.5,-219.98 3836.5,-219.98"/>
</g>
<!-- UsersModule -->
<g id="node34" class="node">
<title>UsersModule</title>
<polygon fill="#8dd3c7" stroke="black" points="581.92,-342 578.92,-346 557.92,-346 554.92,-342 490.08,-342 490.08,-306 581.92,-306 581.92,-342"/>
<text text-anchor="middle" x="536" y="-319.8" font-family="Times,serif" font-size="14.00">UsersModule</text>
</g>
<!-- CommonModule&#45;&gt;UsersModule -->
<g id="edge53" class="edge">
<title>CommonModule&#45;&gt;UsersModule</title>
<path fill="none" stroke="black" d="M4049.46,-190.21C4049.46,-225.77 4049.46,-301 4049.46,-301 4049.46,-301 536.99,-301 536.99,-301 536.99,-301 536.99,-301.49 536.99,-301.49"/>
<polygon fill="black" stroke="black" points="533.49,-295.88 536.99,-305.88 540.49,-295.88 533.49,-295.88"/>
</g>
<!-- ApiKeyModule&#45;&gt;ApiKeyService  -->
<g id="edge2" class="edge">
<title>ApiKeyModule&#45;&gt;ApiKeyService </title>
<path fill="none" stroke="black" stroke-dasharray="5,2" d="M4114.48,-266.01C4114.48,-266.01 4114.48,-295.85 4114.48,-295.85"/>
<polygon fill="black" stroke="black" points="4110.98,-295.85 4114.48,-305.85 4117.98,-295.85 4110.98,-295.85"/>
</g>
<!-- DomainModule -->
<g id="node5" class="node">
<title>DomainModule</title>
<polygon fill="#8dd3c7" stroke="black" points="726.15,-266 723.15,-270 702.15,-270 699.15,-266 621.85,-266 621.85,-230 726.15,-230 726.15,-266"/>
<text text-anchor="middle" x="674" y="-243.8" font-family="Times,serif" font-size="14.00">DomainModule</text>
</g>
<!-- ApiKeyModule&#45;&gt;DomainModule -->
<g id="edge38" class="edge">
<title>ApiKeyModule&#45;&gt;DomainModule</title>
<path fill="none" stroke="black" d="M4096.66,-229.89C4096.66,-220.1 4096.66,-210 4096.66,-210 4096.66,-210 720.15,-210 720.15,-210 720.15,-210 720.15,-219.89 720.15,-219.89"/>
<polygon fill="black" stroke="black" points="716.65,-219.89 720.15,-229.89 723.65,-219.89 716.65,-219.89"/>
</g>
<!-- ApiKeyService -->
<g id="node4" class="node">
<title>ApiKeyService</title>
<ellipse fill="#fdb462" stroke="black" cx="4111" cy="-104" rx="70.62" ry="18"/>
<text text-anchor="middle" x="4111" y="-99.8" font-family="Times,serif" font-size="14.00">ApiKeyService</text>
</g>
<!-- ApiKeyService&#45;&gt;CommonModule -->
<g id="edge27" class="edge">
<title>ApiKeyService&#45;&gt;CommonModule</title>
<path fill="none" stroke="black" d="M4114.7,-122.22C4114.7,-122.22 4114.7,-143.73 4114.7,-143.73"/>
<polygon fill="black" stroke="black" points="4111.2,-143.73 4114.7,-153.73 4118.2,-143.73 4111.2,-143.73"/>
</g>
<!-- ApiKeyService&#45;&gt;ApiKeyModule -->
<g id="edge3" class="edge">
<title>ApiKeyService&#45;&gt;ApiKeyModule</title>
<path fill="none" stroke="black" d="M4162.38,-116.53C4162.38,-116.53 4162.38,-219.6 4162.38,-219.6"/>
<polygon fill="black" stroke="black" points="4158.88,-219.6 4162.38,-229.6 4165.88,-219.6 4158.88,-219.6"/>
</g>
<!-- DomainModule&#45;&gt;AppModule -->
<g id="edge5" class="edge">
<title>DomainModule&#45;&gt;AppModule</title>
<path fill="none" stroke="black" d="M687.5,-266.03C687.5,-290.98 687.5,-333 687.5,-333 687.5,-333 864.09,-333 864.09,-333"/>
<polygon fill="black" stroke="black" points="864.09,-336.5 874.09,-333 864.09,-329.5 864.09,-336.5"/>
</g>
<!-- ApiKeyModule  -->
<g id="node35" class="node">
<title>ApiKeyModule </title>
<polygon fill="#fb8072" stroke="black" points="243.87,-342 136.13,-342 136.13,-306 243.87,-306 243.87,-342"/>
<text text-anchor="middle" x="190" y="-319.8" font-family="Times,serif" font-size="14.00">ApiKeyModule </text>
</g>
<!-- DomainModule&#45;&gt;ApiKeyModule  -->
<g id="edge42" class="edge">
<title>DomainModule&#45;&gt;ApiKeyModule </title>
<path fill="none" stroke="black" stroke-dasharray="5,2" d="M630.67,-266.11C630.67,-275.9 630.67,-286 630.67,-286 630.67,-286 190,-286 190,-286 190,-286 190,-295.89 190,-295.89"/>
<polygon fill="black" stroke="black" points="186.5,-295.89 190,-305.89 193.5,-295.89 186.5,-295.89"/>
</g>
<!-- AuditModule  -->
<g id="node36" class="node">
<title>AuditModule </title>
<polygon fill="#fb8072" stroke="black" points="118.44,-342 23.56,-342 23.56,-306 118.44,-306 118.44,-342"/>
<text text-anchor="middle" x="71" y="-319.8" font-family="Times,serif" font-size="14.00">AuditModule </text>
</g>
<!-- DomainModule&#45;&gt;AuditModule  -->
<g id="edge43" class="edge">
<title>DomainModule&#45;&gt;AuditModule </title>
<path fill="none" stroke="black" stroke-dasharray="5,2" d="M626.17,-266.04C626.17,-273.75 626.17,-281 626.17,-281 626.17,-281 71,-281 71,-281 71,-281 71,-295.51 71,-295.51"/>
<polygon fill="black" stroke="black" points="67.5,-295.51 71,-305.51 74.5,-295.51 67.5,-295.51"/>
</g>
<!-- AuthModule  -->
<g id="node37" class="node">
<title>AuthModule </title>
<polygon fill="#fb8072" stroke="black" points="465.55,-342 374.45,-342 374.45,-306 465.55,-306 465.55,-342"/>
<text text-anchor="middle" x="420" y="-319.8" font-family="Times,serif" font-size="14.00">AuthModule </text>
</g>
<!-- DomainModule&#45;&gt;AuthModule  -->
<g id="edge44" class="edge">
<title>DomainModule&#45;&gt;AuthModule </title>
<path fill="none" stroke="black" stroke-dasharray="5,2" d="M639.67,-266.15C639.67,-279.74 639.67,-296 639.67,-296 639.67,-296 456.86,-296 456.86,-296 456.86,-296 456.86,-296.98 456.86,-296.98"/>
<polygon fill="black" stroke="black" points="453.36,-295.79 456.86,-305.79 460.36,-295.79 453.36,-295.79"/>
</g>
<!-- UsersModule  -->
<g id="node38" class="node">
<title>UsersModule </title>
<polygon fill="#fb8072" stroke="black" points="356.42,-342 261.58,-342 261.58,-306 356.42,-306 356.42,-342"/>
<text text-anchor="middle" x="309" y="-319.8" font-family="Times,serif" font-size="14.00">UsersModule </text>
</g>
<!-- DomainModule&#45;&gt;UsersModule  -->
<g id="edge45" class="edge">
<title>DomainModule&#45;&gt;UsersModule </title>
<path fill="none" stroke="black" stroke-dasharray="5,2" d="M635.17,-266.49C635.17,-278.14 635.17,-291 635.17,-291 635.17,-291 334.08,-291 334.08,-291 334.08,-291 334.08,-295.96 334.08,-295.96"/>
<polygon fill="black" stroke="black" points="330.58,-295.96 334.08,-305.96 337.58,-295.96 330.58,-295.96"/>
</g>
<!-- LoadersModule&#45;&gt;AppModule -->
<g id="edge6" class="edge">
<title>LoadersModule&#45;&gt;AppModule</title>
<path fill="none" stroke="black" d="M916,-266.01C916,-266.01 916,-295.85 916,-295.85"/>
<polygon fill="black" stroke="black" points="912.5,-295.85 916,-305.85 919.5,-295.85 912.5,-295.85"/>
</g>
<!-- LoadersModule&#45;&gt;AppConfiguration  -->
<g id="edge47" class="edge">
<title>LoadersModule&#45;&gt;AppConfiguration </title>
<path fill="none" stroke="black" stroke-dasharray="5,2" d="M964.82,-266.12C964.82,-268.97 964.82,-271 964.82,-271 964.82,-271 3594,-271 3594,-271 3594,-271 3594,-270.51 3594,-270.51"/>
<polygon fill="black" stroke="black" points="3597.5,-276.12 3594,-266.12 3590.5,-276.12 3597.5,-276.12"/>
</g>
<!-- LoadersModule&#45;&gt;PrismaService  -->
<g id="edge48" class="edge">
<title>LoadersModule&#45;&gt;PrismaService </title>
<path fill="none" stroke="black" stroke-dasharray="5,2" d="M961.32,-266.21C961.32,-271.55 961.32,-276 961.32,-276 961.32,-276 3840,-276 3840,-276 3840,-276 3840,-275.02 3840,-275.02"/>
<polygon fill="black" stroke="black" points="3843.5,-276.21 3840,-266.21 3836.5,-276.21 3843.5,-276.21"/>
</g>
<!-- QueuesModule -->
<g id="node7" class="node">
<title>QueuesModule</title>
<polygon fill="#8dd3c7" stroke="black" points="845.53,-266 842.53,-270 821.53,-270 818.53,-266 744.47,-266 744.47,-230 845.53,-230 845.53,-266"/>
<text text-anchor="middle" x="795" y="-243.8" font-family="Times,serif" font-size="14.00">QueuesModule</text>
</g>
<!-- QueuesModule&#45;&gt;AppModule -->
<g id="edge7" class="edge">
<title>QueuesModule&#45;&gt;AppModule</title>
<path fill="none" stroke="black" d="M795,-266.01C795,-288.49 795,-324 795,-324 795,-324 864.02,-324 864.02,-324"/>
<polygon fill="black" stroke="black" points="864.02,-327.5 874.02,-324 864.02,-320.5 864.02,-327.5"/>
</g>
<!-- QueueService  -->
<g id="node39" class="node">
<title>QueueService </title>
<polygon fill="#fb8072" stroke="black" points="960.01,-190 861.99,-190 861.99,-154 960.01,-154 960.01,-190"/>
<text text-anchor="middle" x="911" y="-167.8" font-family="Times,serif" font-size="14.00">QueueService </text>
</g>
<!-- QueuesModule&#45;&gt;QueueService  -->
<g id="edge51" class="edge">
<title>QueuesModule&#45;&gt;QueueService </title>
<path fill="none" stroke="black" stroke-dasharray="5,2" d="M841.98,-229.99C841.98,-207.51 841.98,-172 841.98,-172 841.98,-172 851.94,-172 851.94,-172"/>
<polygon fill="black" stroke="black" points="851.94,-175.5 861.94,-172 851.94,-168.5 851.94,-175.5"/>
</g>
<!-- AppService -->
<g id="node9" class="node">
<title>AppService</title>
<ellipse fill="#fdb462" stroke="black" cx="1049" cy="-248" rx="56.74" ry="18"/>
<text text-anchor="middle" x="1049" y="-243.8" font-family="Times,serif" font-size="14.00">AppService</text>
</g>
<!-- AppService&#45;&gt;AppModule -->
<g id="edge8" class="edge">
<title>AppService&#45;&gt;AppModule</title>
<path fill="none" stroke="black" d="M1049,-266.03C1049,-286.77 1049,-318 1049,-318 1049,-318 967.72,-318 967.72,-318"/>
<polygon fill="black" stroke="black" points="967.72,-314.5 957.72,-318 967.72,-321.5 967.72,-314.5"/>
</g>
<!-- AuditModule&#45;&gt;DomainModule -->
<g id="edge39" class="edge">
<title>AuditModule&#45;&gt;DomainModule</title>
<path fill="none" stroke="black" d="M1200.78,-190.24C1200.78,-197.43 1200.78,-204 1200.78,-204 1200.78,-204 713.98,-204 713.98,-204 713.98,-204 713.98,-219.85 713.98,-219.85"/>
<polygon fill="black" stroke="black" points="710.48,-219.85 713.98,-229.85 717.48,-219.85 710.48,-219.85"/>
</g>
<!-- AuditModule&#45;&gt;AuditService  -->
<g id="edge10" class="edge">
<title>AuditModule&#45;&gt;AuditService </title>
<path fill="none" stroke="black" stroke-dasharray="5,2" d="M1229.25,-190.01C1229.25,-190.01 1229.25,-219.85 1229.25,-219.85"/>
<polygon fill="black" stroke="black" points="1225.75,-219.85 1229.25,-229.85 1232.75,-219.85 1225.75,-219.85"/>
</g>
<!-- AuditService -->
<g id="node12" class="node">
<title>AuditService</title>
<ellipse fill="#fdb462" stroke="black" cx="1208" cy="-104" rx="61.98" ry="18"/>
<text text-anchor="middle" x="1208" y="-99.8" font-family="Times,serif" font-size="14.00">AuditService</text>
</g>
<!-- AuditService&#45;&gt;CommonModule -->
<g id="edge29" class="edge">
<title>AuditService&#45;&gt;CommonModule</title>
<path fill="none" stroke="black" d="M1260.37,-114.03C1260.37,-129.14 1260.37,-156 1260.37,-156 1260.37,-156 4030.31,-156 4030.31,-156"/>
<polygon fill="black" stroke="black" points="4030.31,-159.5 4040.31,-156 4030.31,-152.5 4030.31,-159.5"/>
</g>
<!-- AuditService&#45;&gt;AuditModule -->
<g id="edge11" class="edge">
<title>AuditService&#45;&gt;AuditModule</title>
<path fill="none" stroke="black" d="M1212,-122.22C1212,-122.22 1212,-143.73 1212,-143.73"/>
<polygon fill="black" stroke="black" points="1208.5,-143.73 1212,-153.73 1215.5,-143.73 1208.5,-143.73"/>
</g>
<!-- AuthModule&#45;&gt;DomainModule -->
<g id="edge40" class="edge">
<title>AuthModule&#45;&gt;DomainModule</title>
<path fill="none" stroke="black" d="M580.6,-172C617.61,-172 664.74,-172 664.74,-172 664.74,-172 664.74,-219.99 664.74,-219.99"/>
<polygon fill="black" stroke="black" points="661.24,-219.99 664.74,-229.99 668.24,-219.99 661.24,-219.99"/>
</g>
<!-- AuthService  -->
<g id="node14" class="node">
<title>AuthService </title>
<polygon fill="#fb8072" stroke="black" points="581.98,-266 492.02,-266 492.02,-230 581.98,-230 581.98,-266"/>
<text text-anchor="middle" x="537" y="-243.8" font-family="Times,serif" font-size="14.00">AuthService </text>
</g>
<!-- AuthModule&#45;&gt;AuthService  -->
<g id="edge13" class="edge">
<title>AuthModule&#45;&gt;AuthService </title>
<path fill="none" stroke="black" stroke-dasharray="5,2" d="M522.41,-190.01C522.41,-190.01 522.41,-219.85 522.41,-219.85"/>
<polygon fill="black" stroke="black" points="518.91,-219.85 522.41,-229.85 525.91,-219.85 518.91,-219.85"/>
</g>
<!-- AuthService -->
<g id="node15" class="node">
<title>AuthService</title>
<ellipse fill="#fdb462" stroke="black" cx="371" cy="-104" rx="59.11" ry="18"/>
<text text-anchor="middle" x="371" y="-99.8" font-family="Times,serif" font-size="14.00">AuthService</text>
</g>
<!-- AuthService&#45;&gt;AuthModule -->
<g id="edge14" class="edge">
<title>AuthService&#45;&gt;AuthModule</title>
<path fill="none" stroke="black" d="M402.39,-119.43C402.39,-139.49 402.39,-172 402.39,-172 402.39,-172 483.3,-172 483.3,-172"/>
<polygon fill="black" stroke="black" points="483.3,-175.5 493.3,-172 483.3,-168.5 483.3,-175.5"/>
</g>
<!-- PrismaService -->
<g id="node16" class="node">
<title>PrismaService</title>
<ellipse fill="#fdb462" stroke="black" cx="515" cy="-104" rx="66.63" ry="18"/>
<text text-anchor="middle" x="515" y="-99.8" font-family="Times,serif" font-size="14.00">PrismaService</text>
</g>
<!-- PrismaService&#45;&gt;CommonModule -->
<g id="edge35" class="edge">
<title>PrismaService&#45;&gt;CommonModule</title>
<path fill="none" stroke="black" d="M551.59,-119.41C551.59,-128.4 551.59,-138 551.59,-138 551.59,-138 4077.57,-138 4077.57,-138 4077.57,-138 4077.57,-143.81 4077.57,-143.81"/>
<polygon fill="black" stroke="black" points="4074.07,-143.81 4077.57,-153.81 4081.07,-143.81 4074.07,-143.81"/>
</g>
<!-- PrismaService&#45;&gt;LoadersModule -->
<g id="edge50" class="edge">
<title>PrismaService&#45;&gt;LoadersModule</title>
<path fill="none" stroke="black" d="M582.04,-104C706.95,-104 962.78,-104 962.78,-104 962.78,-104 962.78,-219.76 962.78,-219.76"/>
<polygon fill="black" stroke="black" points="959.28,-219.76 962.78,-229.76 966.28,-219.76 959.28,-219.76"/>
</g>
<!-- PrismaService&#45;&gt;AuthModule -->
<g id="edge15" class="edge">
<title>PrismaService&#45;&gt;AuthModule</title>
<path fill="none" stroke="black" d="M522.41,-122.22C522.41,-122.22 522.41,-143.73 522.41,-143.73"/>
<polygon fill="black" stroke="black" points="518.91,-143.73 522.41,-153.73 525.91,-143.73 518.91,-143.73"/>
</g>
<!-- PrismaService&#45;&gt;UsersModule -->
<g id="edge55" class="edge">
<title>PrismaService&#45;&gt;UsersModule</title>
<path fill="none" stroke="black" d="M477.91,-119.12C477.91,-168.83 477.91,-324 477.91,-324 477.91,-324 480.23,-324 480.23,-324"/>
<polygon fill="black" stroke="black" points="480.23,-327.5 490.23,-324 480.23,-320.5 480.23,-327.5"/>
</g>
<!-- AppConfiguration -->
<g id="node26" class="node">
<title>AppConfiguration</title>
<ellipse fill="#fdb462" stroke="black" cx="2750" cy="-248" rx="81.69" ry="18"/>
<text text-anchor="middle" x="2750" y="-243.8" font-family="Times,serif" font-size="14.00">AppConfiguration</text>
</g>
<!-- AppConfiguration&#45;&gt;CommonModule -->
<g id="edge28" class="edge">
<title>AppConfiguration&#45;&gt;CommonModule</title>
<path fill="none" stroke="black" d="M2722.72,-230.84C2722.72,-208.98 2722.72,-174 2722.72,-174 2722.72,-174 4030.04,-174 4030.04,-174"/>
<polygon fill="black" stroke="black" points="4030.04,-177.5 4040.04,-174 4030.04,-170.5 4030.04,-177.5"/>
</g>
<!-- AppConfiguration&#45;&gt;LoadersModule -->
<g id="edge49" class="edge">
<title>AppConfiguration&#45;&gt;LoadersModule</title>
<path fill="none" stroke="black" d="M2777.28,-230.81C2777.28,-226.97 2777.28,-224 2777.28,-224 2777.28,-224 965.55,-224 965.55,-224 965.55,-224 965.55,-224.58 965.55,-224.58"/>
<polygon fill="black" stroke="black" points="962.05,-219.81 965.55,-229.81 969.05,-219.81 962.05,-219.81"/>
</g>
<!-- AuthMiddleware -->
<g id="node27" class="node">
<title>AuthMiddleware</title>
<ellipse fill="#fdb462" stroke="black" cx="2573" cy="-248" rx="77.01" ry="18"/>
<text text-anchor="middle" x="2573" y="-243.8" font-family="Times,serif" font-size="14.00">AuthMiddleware</text>
</g>
<!-- AuthMiddleware&#45;&gt;CommonModule -->
<g id="edge30" class="edge">
<title>AuthMiddleware&#45;&gt;CommonModule</title>
<path fill="none" stroke="black" d="M2573,-229.99C2573,-207.51 2573,-172 2573,-172 2573,-172 4029.99,-172 4029.99,-172"/>
<polygon fill="black" stroke="black" points="4029.99,-175.5 4039.99,-172 4029.99,-168.5 4029.99,-175.5"/>
</g>
<!-- AuthenticationUtilityService -->
<g id="node28" class="node">
<title>AuthenticationUtilityService</title>
<ellipse fill="#fdb462" stroke="black" cx="2355" cy="-248" rx="122.7" ry="18"/>
<text text-anchor="middle" x="2355" y="-243.8" font-family="Times,serif" font-size="14.00">AuthenticationUtilityService</text>
</g>
<!-- AuthenticationUtilityService&#45;&gt;CommonModule -->
<g id="edge31" class="edge">
<title>AuthenticationUtilityService&#45;&gt;CommonModule</title>
<path fill="none" stroke="black" d="M2355,-229.75C2355,-206.98 2355,-171 2355,-171 2355,-171 4030.05,-171 4030.05,-171"/>
<polygon fill="black" stroke="black" points="4030.05,-174.5 4040.05,-171 4030.05,-167.5 4030.05,-174.5"/>
</g>
<!-- CacheService -->
<g id="node29" class="node">
<title>CacheService</title>
<ellipse fill="#fdb462" stroke="black" cx="2150" cy="-248" rx="64.24" ry="18"/>
<text text-anchor="middle" x="2150" y="-243.8" font-family="Times,serif" font-size="14.00">CacheService</text>
</g>
<!-- CacheService&#45;&gt;CommonModule -->
<g id="edge32" class="edge">
<title>CacheService&#45;&gt;CommonModule</title>
<path fill="none" stroke="black" d="M2150,-229.68C2150,-206.34 2150,-169 2150,-169 2150,-169 4030.12,-169 4030.12,-169"/>
<polygon fill="black" stroke="black" points="4030.12,-172.5 4040.12,-169 4030.12,-165.5 4030.12,-172.5"/>
</g>
<!-- EmailService -->
<g id="node30" class="node">
<title>EmailService</title>
<ellipse fill="#fdb462" stroke="black" cx="2005" cy="-248" rx="63.12" ry="18"/>
<text text-anchor="middle" x="2005" y="-243.8" font-family="Times,serif" font-size="14.00">EmailService</text>
</g>
<!-- EmailService&#45;&gt;CommonModule -->
<g id="edge33" class="edge">
<title>EmailService&#45;&gt;CommonModule</title>
<path fill="none" stroke="black" d="M2005,-229.62C2005,-205.72 2005,-167 2005,-167 2005,-167 4030.07,-167 4030.07,-167"/>
<polygon fill="black" stroke="black" points="4030.07,-170.5 4040.07,-167 4030.07,-163.5 4030.07,-170.5"/>
</g>
<!-- HealthService -->
<g id="node31" class="node">
<title>HealthService</title>
<ellipse fill="#fdb462" stroke="black" cx="1858" cy="-248" rx="65.97" ry="18"/>
<text text-anchor="middle" x="1858" y="-243.8" font-family="Times,serif" font-size="14.00">HealthService</text>
</g>
<!-- HealthService&#45;&gt;CommonModule -->
<g id="edge34" class="edge">
<title>HealthService&#45;&gt;CommonModule</title>
<path fill="none" stroke="black" d="M1858,-229.99C1858,-205.58 1858,-165 1858,-165 1858,-165 4030.12,-165 4030.12,-165"/>
<polygon fill="black" stroke="black" points="4030.12,-168.5 4040.12,-165 4030.12,-161.5 4030.12,-168.5"/>
</g>
<!-- RedisHealthIndicator -->
<g id="node32" class="node">
<title>RedisHealthIndicator</title>
<ellipse fill="#fdb462" stroke="black" cx="1681" cy="-248" rx="93.76" ry="18"/>
<text text-anchor="middle" x="1681" y="-243.8" font-family="Times,serif" font-size="14.00">RedisHealthIndicator</text>
</g>
<!-- RedisHealthIndicator&#45;&gt;CommonModule -->
<g id="edge36" class="edge">
<title>RedisHealthIndicator&#45;&gt;CommonModule</title>
<path fill="none" stroke="black" d="M1681,-229.97C1681,-205.02 1681,-163 1681,-163 1681,-163 4030.15,-163 4030.15,-163"/>
<polygon fill="black" stroke="black" points="4030.15,-166.5 4040.15,-163 4030.15,-159.5 4030.15,-166.5"/>
</g>
<!-- ServerHealthIndicator -->
<g id="node33" class="node">
<title>ServerHealthIndicator</title>
<ellipse fill="#fdb462" stroke="black" cx="1473" cy="-248" rx="96.67" ry="18"/>
<text text-anchor="middle" x="1473" y="-243.8" font-family="Times,serif" font-size="14.00">ServerHealthIndicator</text>
</g>
<!-- ServerHealthIndicator&#45;&gt;CommonModule -->
<g id="edge37" class="edge">
<title>ServerHealthIndicator&#45;&gt;CommonModule</title>
<path fill="none" stroke="black" d="M1473,-229.76C1473,-204.52 1473,-162 1473,-162 1473,-162 4030.31,-162 4030.31,-162"/>
<polygon fill="black" stroke="black" points="4030.31,-165.5 4040.31,-162 4030.31,-158.5 4030.31,-165.5"/>
</g>
<!-- UsersModule&#45;&gt;DomainModule -->
<g id="edge41" class="edge">
<title>UsersModule&#45;&gt;DomainModule</title>
<path fill="none" stroke="black" d="M581.88,-315C611.36,-315 644.17,-315 644.17,-315 644.17,-315 644.17,-276.31 644.17,-276.31"/>
<polygon fill="black" stroke="black" points="647.67,-276.31 644.17,-266.31 640.67,-276.31 647.67,-276.31"/>
</g>
<!-- UsersService  -->
<g id="node41" class="node">
<title>UsersService </title>
<polygon fill="#fb8072" stroke="black" points="648.85,-418 555.15,-418 555.15,-382 648.85,-382 648.85,-418"/>
<text text-anchor="middle" x="602" y="-395.8" font-family="Times,serif" font-size="14.00">UsersService </text>
</g>
<!-- UsersModule&#45;&gt;UsersService  -->
<g id="edge54" class="edge">
<title>UsersModule&#45;&gt;UsersService </title>
<path fill="none" stroke="black" stroke-dasharray="5,2" d="M568.52,-342.01C568.52,-342.01 568.52,-371.85 568.52,-371.85"/>
<polygon fill="black" stroke="black" points="565.02,-371.85 568.52,-381.85 572.02,-371.85 565.02,-371.85"/>
</g>
<!-- QueueService -->
<g id="node40" class="node">
<title>QueueService</title>
<ellipse fill="#fdb462" stroke="black" cx="773" cy="-172" rx="65.39" ry="18"/>
<text text-anchor="middle" x="773" y="-167.8" font-family="Times,serif" font-size="14.00">QueueService</text>
</g>
<!-- QueueService&#45;&gt;QueuesModule -->
<g id="edge52" class="edge">
<title>QueueService&#45;&gt;QueuesModule</title>
<path fill="none" stroke="black" d="M791.21,-189.63C791.21,-189.63 791.21,-219.94 791.21,-219.94"/>
<polygon fill="black" stroke="black" points="787.71,-219.94 791.21,-229.94 794.71,-219.94 787.71,-219.94"/>
</g>
<!-- UsersService -->
<g id="node42" class="node">
<title>UsersService</title>
<ellipse fill="#fdb462" stroke="black" cx="469" cy="-400" rx="61.95" ry="18"/>
<text text-anchor="middle" x="469" y="-395.8" font-family="Times,serif" font-size="14.00">UsersService</text>
</g>
<!-- UsersService&#45;&gt;UsersModule -->
<g id="edge56" class="edge">
<title>UsersService&#45;&gt;UsersModule</title>
<path fill="none" stroke="black" d="M510.63,-386.41C510.63,-386.41 510.63,-352.04 510.63,-352.04"/>
<polygon fill="black" stroke="black" points="514.13,-352.04 510.63,-342.04 507.13,-352.04 514.13,-352.04"/>
</g>
</g>
</svg>
