<?xml version="1.0" encoding="UTF-8" standalone="no"?>
<!DOCTYPE svg PUBLIC "-//W3C//DTD SVG 1.1//EN"
 "http://www.w3.org/Graphics/SVG/1.1/DTD/svg11.dtd">
<!-- Generated by graphviz version 2.47.0 (20210316.0004)
 -->
<!-- Title: dependencies Pages: 1 -->
<svg width="508pt" height="284pt"
 viewBox="0.00 0.00 508.00 284.00" xmlns="http://www.w3.org/2000/svg" xmlns:xlink="http://www.w3.org/1999/xlink">
<g id="graph0" class="graph" transform="scale(1 1) rotate(0) translate(4 280)">
<title>dependencies</title>
<polygon fill="white" stroke="transparent" points="-4,4 -4,-280 504,-280 504,4 -4,4"/>
<text text-anchor="start" x="229.01" y="-42.4" font-family="Times-12" font-weight="bold" font-size="14.00">Legend</text>
<polygon fill="#ffffb3" stroke="transparent" points="16,-10 16,-30 36,-30 36,-10 16,-10"/>
<text text-anchor="start" x="39.63" y="-15.4" font-family="Times-12" font-size="14.00"> &#160;Declarations</text>
<polygon fill="#8dd3c7" stroke="transparent" points="129,-10 129,-30 149,-30 149,-10 129,-10"/>
<text text-anchor="start" x="152.73" y="-15.4" font-family="Times-12" font-size="14.00"> &#160;Module</text>
<polygon fill="#80b1d3" stroke="transparent" points="215,-10 215,-30 235,-30 235,-10 215,-10"/>
<text text-anchor="start" x="238.78" y="-15.4" font-family="Times-12" font-size="14.00"> &#160;Bootstrap</text>
<polygon fill="#fdb462" stroke="transparent" points="312,-10 312,-30 332,-30 332,-10 312,-10"/>
<text text-anchor="start" x="335.67" y="-15.4" font-family="Times-12" font-size="14.00"> &#160;Providers</text>
<polygon fill="#fb8072" stroke="transparent" points="408,-10 408,-30 428,-30 428,-10 408,-10"/>
<text text-anchor="start" x="431.73" y="-15.4" font-family="Times-12" font-size="14.00"> &#160;Exports</text>
<g id="clust1" class="cluster">
<title>cluster_LoadersModule</title>
<polygon fill="none" stroke="black" stroke-dasharray="1,5" points="8,-70 8,-268 492,-268 492,-70 8,-70"/>
</g>
<g id="clust3" class="cluster">
<title>cluster_LoadersModule_imports</title>
<polygon fill="none" stroke="black" points="356,-78 356,-130 484,-130 484,-78 356,-78"/>
</g>
<g id="clust6" class="cluster">
<title>cluster_LoadersModule_providers</title>
<polygon fill="none" stroke="black" points="16,-78 16,-130 348,-130 348,-78 16,-78"/>
</g>
<g id="clust4" class="cluster">
<title>cluster_LoadersModule_exports</title>
<polygon fill="none" stroke="black" points="136,-208 136,-260 392,-260 392,-208 136,-208"/>
</g>
<!-- CommonModule -->
<g id="node1" class="node">
<title>CommonModule</title>
<polygon fill="#8dd3c7" stroke="black" points="475.67,-122 472.67,-126 451.67,-126 448.67,-122 364.33,-122 364.33,-86 475.67,-86 475.67,-122"/>
<text text-anchor="middle" x="420" y="-99.8" font-family="Times,serif" font-size="14.00">CommonModule</text>
</g>
<!-- LoadersModule -->
<g id="node2" class="node">
<title>LoadersModule</title>
<polygon fill="#8dd3c7" stroke="black" points="310.14,-187 307.14,-191 286.14,-191 283.14,-187 205.86,-187 205.86,-151 310.14,-151 310.14,-187"/>
<text text-anchor="middle" x="258" y="-164.8" font-family="Times,serif" font-size="14.00">LoadersModule</text>
</g>
<!-- CommonModule&#45;&gt;LoadersModule -->
<g id="edge1" class="edge">
<title>CommonModule&#45;&gt;LoadersModule</title>
<path fill="none" stroke="black" d="M374.12,-122.11C374.12,-141.34 374.12,-169 374.12,-169 374.12,-169 320.29,-169 320.29,-169"/>
<polygon fill="black" stroke="black" points="320.29,-165.5 310.29,-169 320.29,-172.5 320.29,-165.5"/>
</g>
<!-- AppConfiguration  -->
<g id="node3" class="node">
<title>AppConfiguration </title>
<polygon fill="#fb8072" stroke="black" points="384.15,-252 261.85,-252 261.85,-216 384.15,-216 384.15,-252"/>
<text text-anchor="middle" x="323" y="-229.8" font-family="Times,serif" font-size="14.00">AppConfiguration </text>
</g>
<!-- LoadersModule&#45;&gt;AppConfiguration  -->
<g id="edge2" class="edge">
<title>LoadersModule&#45;&gt;AppConfiguration </title>
<path fill="none" stroke="black" stroke-dasharray="5,2" d="M286.12,-187.11C286.12,-187.11 286.12,-205.99 286.12,-205.99"/>
<polygon fill="black" stroke="black" points="282.62,-205.99 286.12,-215.99 289.62,-205.99 282.62,-205.99"/>
</g>
<!-- PrismaService  -->
<g id="node4" class="node">
<title>PrismaService </title>
<polygon fill="#fb8072" stroke="black" points="244.36,-252 143.64,-252 143.64,-216 244.36,-216 244.36,-252"/>
<text text-anchor="middle" x="194" y="-229.8" font-family="Times,serif" font-size="14.00">PrismaService </text>
</g>
<!-- LoadersModule&#45;&gt;PrismaService  -->
<g id="edge3" class="edge">
<title>LoadersModule&#45;&gt;PrismaService </title>
<path fill="none" stroke="black" stroke-dasharray="5,2" d="M224.93,-187.11C224.93,-187.11 224.93,-205.99 224.93,-205.99"/>
<polygon fill="black" stroke="black" points="221.43,-205.99 224.93,-215.99 228.43,-205.99 221.43,-205.99"/>
</g>
<!-- AppConfiguration -->
<g id="node5" class="node">
<title>AppConfiguration</title>
<ellipse fill="#fdb462" stroke="black" cx="258" cy="-104" rx="81.69" ry="18"/>
<text text-anchor="middle" x="258" y="-99.8" font-family="Times,serif" font-size="14.00">AppConfiguration</text>
</g>
<!-- AppConfiguration&#45;&gt;LoadersModule -->
<g id="edge4" class="edge">
<title>AppConfiguration&#45;&gt;LoadersModule</title>
<path fill="none" stroke="black" d="M258,-122.11C258,-122.11 258,-140.99 258,-140.99"/>
<polygon fill="black" stroke="black" points="254.5,-140.99 258,-150.99 261.5,-140.99 254.5,-140.99"/>
</g>
<!-- PrismaService -->
<g id="node6" class="node">
<title>PrismaService</title>
<ellipse fill="#fdb462" stroke="black" cx="91" cy="-104" rx="66.63" ry="18"/>
<text text-anchor="middle" x="91" y="-99.8" font-family="Times,serif" font-size="14.00">PrismaService</text>
</g>
<!-- PrismaService&#45;&gt;LoadersModule -->
<g id="edge5" class="edge">
<title>PrismaService&#45;&gt;LoadersModule</title>
<path fill="none" stroke="black" d="M150.82,-112.23C150.82,-129.72 150.82,-169 150.82,-169 150.82,-169 195.66,-169 195.66,-169"/>
<polygon fill="black" stroke="black" points="195.66,-172.5 205.66,-169 195.66,-165.5 195.66,-172.5"/>
</g>
</g>
</svg>
